# Blender v2.92.0 OBJ File: 'Pickaxe.blend'
# www.blender.org
mtllib Pickaxe.mtl
o Tee_Joint
v -0.037540 0.025484 -0.052203
v -0.028155 0.025484 -0.068352
v -0.003601 0.025484 -0.075542
v 0.021738 0.025484 -0.069560
v 0.033019 0.025484 -0.053911
v 0.023634 0.025484 -0.037761
v -0.000921 0.025484 -0.030571
v -0.026260 0.025484 -0.036553
v -0.037540 0.555061 -0.052203
v -0.028155 0.555061 -0.068352
v -0.003601 0.555061 -0.075542
v 0.021738 0.555061 -0.069560
v 0.033019 0.555061 -0.053911
v 0.023634 0.530096 -0.037761
v -0.000921 0.519756 -0.030571
v -0.026260 0.530096 -0.036553
v -0.026260 0.580025 -0.036553
v -0.000921 0.590366 -0.030571
v 0.023634 0.580025 -0.037761
v -0.037540 1.084638 -0.052203
v -0.028155 1.084638 -0.068352
v -0.003601 1.084638 -0.075542
v 0.021738 1.084638 -0.069560
v 0.033019 1.084638 -0.053911
v 0.023634 1.084638 -0.037761
v -0.000921 1.084638 -0.030571
v -0.026260 1.084638 -0.036553
v -0.026260 0.178663 -0.036553
v -0.037540 0.189482 -0.052203
v -0.028155 0.189482 -0.068352
v -0.003601 0.189482 -0.075542
v 0.021738 0.189482 -0.069560
v 0.033019 0.189482 -0.053911
v 0.023634 0.178663 -0.037761
v -0.000921 0.174181 -0.030571
v -0.037540 0.025484 -0.052203
v -0.028155 0.025484 -0.068352
v -0.003601 0.025484 -0.075542
v 0.021738 0.025484 -0.069560
v 0.033019 0.025484 -0.053911
v 0.023634 0.025484 -0.037761
v -0.000921 0.025484 -0.030571
v -0.026260 0.025484 -0.036553
v -0.026260 0.178663 -0.036553
v -0.037540 0.189482 -0.052203
v -0.028155 0.189482 -0.068352
v -0.003601 0.189482 -0.075542
v 0.021738 0.189482 -0.069560
v 0.033019 0.189482 -0.053911
v 0.023634 0.178663 -0.037761
v -0.000921 0.174181 -0.030571
v -0.037540 0.025484 -0.052203
v -0.028155 0.025484 -0.068352
v -0.003601 0.025484 -0.075542
v 0.021738 0.025484 -0.069560
v 0.033019 0.025484 -0.053911
v 0.023634 0.025484 -0.037761
v -0.000921 0.025484 -0.030571
v -0.026260 0.025484 -0.036553
v -0.026260 0.178663 -0.036553
v -0.037540 0.189482 -0.052203
v -0.028155 0.189482 -0.068352
v -0.003601 0.189482 -0.075542
v 0.021738 0.189482 -0.069560
v 0.033019 0.189482 -0.053911
v 0.023634 0.178663 -0.037761
v -0.000921 0.174181 -0.030571
v -0.054984 -0.006437 -0.051692
v -0.041781 -0.006641 -0.074404
v -0.007249 -0.006994 -0.084512
v 0.028384 -0.007288 -0.076096
v 0.044244 -0.007352 -0.054086
v 0.031041 -0.007148 -0.031375
v -0.003492 -0.006795 -0.021266
v -0.039124 -0.006501 -0.029682
v -0.026749 0.211476 -0.037146
v -0.037634 0.222056 -0.052402
v -0.028492 0.221914 -0.068128
v -0.004581 0.221670 -0.075127
v 0.020092 0.221466 -0.069300
v 0.031073 0.221421 -0.054059
v 0.021835 0.211028 -0.038318
v -0.002116 0.206908 -0.031312
v -0.098094 0.991994 0.496986
v -0.098094 0.991994 0.311699
v 0.087193 0.991994 0.496986
v 0.087193 0.991994 0.311699
v -0.076949 1.058330 -0.034606
v -0.076949 1.113924 -0.034606
v -0.076949 1.058330 -0.067691
v -0.076949 1.113924 -0.067691
v 0.072428 1.058330 -0.034606
v 0.072428 1.113924 -0.034606
v 0.072428 1.058330 -0.067691
v 0.072428 1.113924 -0.067691
v -0.076949 1.120194 -0.073962
v -0.076949 1.009949 -0.073962
v 0.072428 1.009949 -0.073962
v 0.072428 1.120194 -0.073962
v -0.076949 1.009949 -0.073962
v -0.076949 1.009949 -0.028336
v -0.076949 1.120194 -0.028336
v -0.076949 1.120194 -0.073962
v 0.072428 1.120194 -0.073962
v 0.072428 1.009949 -0.073962
v 0.072428 1.009949 -0.028336
v 0.072428 1.120194 -0.028336
v 0.072428 1.113924 -0.067691
v 0.072428 1.058330 -0.067691
v 0.072428 1.058330 -0.034606
v 0.072428 1.113924 -0.034606
v -0.076949 1.058330 -0.067691
v -0.076949 1.058330 -0.034606
v -0.076949 1.113924 -0.034606
v -0.076949 1.113924 -0.067691
v 0.072428 1.113924 -0.067691
v 0.072428 1.058330 -0.067691
v 0.072428 1.058330 -0.034606
v 0.072428 1.113924 -0.034606
v -0.076949 1.058330 -0.067691
v -0.076949 1.058330 -0.034606
v -0.076949 1.113924 -0.034606
v -0.076949 1.113924 -0.067691
v 0.072428 1.113924 -0.067691
v 0.072428 1.058330 -0.067691
v 0.072428 1.058330 -0.034606
v 0.072428 1.113924 -0.034606
v -0.076949 1.058330 -0.067691
v -0.076949 1.058330 -0.034606
v -0.076949 1.113924 -0.034606
v -0.076949 1.113924 -0.067691
v 0.072428 1.113924 -0.067691
v 0.072428 1.058330 -0.067691
v 0.072428 1.058330 -0.034606
v 0.072428 1.113924 -0.034606
v -0.082861 1.062750 -0.065741
v -0.082861 1.062750 -0.036556
v -0.082861 1.111790 -0.036556
v -0.082861 1.111790 -0.065741
v 0.390573 1.102111 -0.052817
v 0.390573 1.096504 -0.052817
v 0.390573 1.096504 -0.049480
v 0.390573 1.102111 -0.049480
v -0.289651 1.105133 -0.103045
v -0.289651 1.105133 0.000748
v -0.289651 1.113924 0.000748
v -0.289651 1.113924 -0.103045
v -0.171331 1.111790 -0.065741
v -0.171331 1.111790 -0.036556
v -0.171331 1.096960 -0.036556
v -0.171331 1.096960 -0.065741
v 0.125129 1.071578 -0.037070
v 0.204665 1.081474 -0.040788
v 0.284201 1.091314 -0.044507
v 0.284201 1.113634 -0.044507
v 0.204665 1.116291 -0.040788
v 0.125129 1.118892 -0.037070
v 0.125129 1.071578 -0.065227
v 0.204665 1.081474 -0.061509
v 0.284201 1.091314 -0.057790
v 0.284201 1.113634 -0.057790
v 0.204665 1.116291 -0.061509
v 0.125129 1.118892 -0.065227
vt 0.000000 0.000000
vt 0.000000 0.000000
vt 0.000000 0.000000
vt 0.000000 0.000000
vt 0.792969 0.562500
vt 0.792969 0.562500
vt 0.792969 0.562500
vt 0.792969 0.562500
vt 0.792969 0.562500
vt 0.792969 0.562500
vt 0.792969 0.562500
vt 0.792969 0.562500
vt 0.792969 0.562500
vt 0.792969 0.562500
vt 0.785156 0.562500
vt 0.785156 0.562500
vt 0.785156 0.562500
vt 0.785156 0.562500
vt 0.792969 0.562500
vt 0.792969 0.562500
vt 0.792969 0.562500
vt 0.792969 0.562500
vt 0.792969 0.562500
vt 0.792969 0.562500
vt 0.792969 0.562500
vt 0.792969 0.562500
vt 0.792969 0.562500
vt 0.792969 0.562500
vt 0.792969 0.562500
vt 0.792969 0.562500
vt 0.792969 0.562500
vt 0.792969 0.562500
vt 0.792969 0.562500
vt 0.792969 0.562500
vt 0.792969 0.562500
vt 0.714844 0.546875
vt 0.714844 0.546875
vt 0.714844 0.546875
vt 0.714844 0.546875
vt 0.714844 0.546875
vt 0.714844 0.546875
vt 0.714844 0.546875
vt 0.714844 0.546875
vt 0.000000 0.000000
vt 0.000000 0.000000
vt 0.000000 0.000000
vt 0.000000 0.000000
vt 0.000000 0.000000
vt 0.000000 0.000000
vt 0.000000 0.000000
vt 0.000000 0.000000
vt 0.000000 0.000000
vt 0.000000 0.000000
vt 0.000000 0.000000
vt 0.000000 0.000000
vt 0.000000 0.000000
vt 0.000000 0.000000
vt 0.000000 0.000000
vt 0.000000 0.000000
vt 0.000000 0.000000
vt 0.000000 0.000000
vt 0.000000 0.000000
vt 0.000000 0.000000
vt 0.000000 0.000000
vt 0.000000 0.000000
vt 0.000000 0.000000
vt 0.000000 0.000000
vt 0.000000 0.000000
vt 0.000000 0.000000
vt 0.000000 0.000000
vt 0.000000 0.000000
vt 0.000000 0.000000
vt 0.000000 0.000000
vt 0.000000 0.000000
vt 0.000000 0.000000
vt 0.000000 0.000000
vt 0.000000 0.000000
vt 0.000000 0.000000
vt 0.000000 0.000000
vt 0.781250 0.574219
vt 0.781250 0.574219
vt 0.781250 0.574219
vt 0.781250 0.574219
vt 0.000000 0.000000
vt 0.000000 0.000000
vt 0.000000 0.000000
vt 0.000000 0.000000
vt 0.000000 0.000000
vt 0.000000 0.000000
vt 0.000000 0.000000
vt 0.000000 0.000000
vt 0.792969 0.562500
vt 0.792969 0.562500
vt 0.792969 0.562500
vt 0.792969 0.562500
vt 0.792969 0.562500
vt 0.792969 0.562500
vt 0.792969 0.562500
vt 0.792969 0.562500
vt 0.792969 0.562500
vt 0.792969 0.562500
vt 0.792969 0.562500
vt 0.792969 0.562500
vt 0.792969 0.562500
vt 0.792969 0.562500
vt 0.792969 0.562500
vt 0.792969 0.562500
vt 0.000000 0.000000
vt 0.000000 0.000000
vt 0.792969 0.562500
vt 0.792969 0.562500
vt 0.792969 0.562500
vt 0.792969 0.562500
vt 0.792969 0.562500
vt 0.792969 0.562500
vt 0.000000 0.000000
vt 0.000000 0.000000
vt 0.792969 0.562500
vt 0.000000 0.000000
vt 0.000000 0.000000
vt 0.000000 0.000000
vt 0.000000 0.000000
vt 0.000000 0.000000
vt 0.000000 0.000000
vt 0.000000 0.000000
vt 0.000000 0.000000
vt 0.000000 0.000000
vt 0.000000 0.000000
vt 0.389219 0.215643
vt 0.389219 0.034357
vt 0.389219 0.034357
vt 0.389219 0.215643
vt nan nan
vt nan nan
vt nan nan
vt nan nan
vt 0.389219 0.534357
vt 0.610781 0.534357
vt 0.610781 0.534357
vt 0.389219 0.534357
vt 0.941406 0.902344
vt 0.941406 0.902344
vt 0.941406 0.902344
vt 0.941406 0.902344
vt 0.925781 0.898438
vt 0.925781 0.898438
vt 0.925781 0.898438
vt 0.925781 0.898438
vt 0.941406 0.902344
vt 0.941406 0.902344
vt 0.941406 0.902344
vt 0.941406 0.902344
vt 0.941406 0.902344
vt 0.941406 0.902344
vt 0.375000 0.500000
vt 0.125000 0.500000
vt 0.125000 0.500000
vt 0.375000 0.500000
vt 0.875000 0.500000
vt 0.625000 0.500000
vt 0.625000 0.500000
vt 0.875000 0.500000
vt nan nan
vt nan nan
vt nan nan
vt nan nan
vt 0.941406 0.902344
vt 0.941406 0.902344
vt 0.941406 0.902344
vt 0.941406 0.902344
vt 0.941406 0.902344
vt 0.941406 0.902344
vt 0.941406 0.902344
vt 0.941406 0.902344
vt 0.941406 0.902344
vt 0.941406 0.902344
vt 0.610781 0.034357
vt 0.610781 0.215643
vt 0.610781 0.215643
vt 0.610781 0.034357
vt 0.610781 0.715643
vt 0.389219 0.715643
vt 0.389219 0.715643
vt 0.610781 0.715643
vt 0.389219 0.034357
vt 0.389219 0.215643
vt 0.610781 0.215643
vt 0.610781 0.034357
vt 0.610781 0.715643
vt 0.610781 0.534357
vt 0.389219 0.534357
vt 0.389219 0.715643
vt 0.389219 0.534357
vt 0.610781 0.534357
vt 0.610781 0.534357
vt 0.389219 0.534357
vt 0.610781 0.715643
vt 0.610781 0.715643
vt 0.389219 0.715643
vt 0.941406 0.902344
vt 0.941406 0.902344
vt 0.941406 0.902344
vt 0.941406 0.902344
vt 0.093750 0.898438
vt 0.093750 0.898438
vt 0.093750 0.898438
vt 0.093750 0.898438
vt 0.610781 0.215643
vt 0.610781 0.034357
vt 0.389219 0.034357
vt 0.389219 0.215643
vt 0.389219 0.715643
vt 0.941406 0.902344
vt 0.941406 0.902344
vt 0.941406 0.902344
vt 0.941406 0.902344
vt 0.941406 0.902344
vt 0.941406 0.902344
vt 0.941406 0.902344
vt 0.941406 0.902344
vt 0.093750 0.898438
vt 0.093750 0.898438
vt 0.941406 0.902344
vt 0.941406 0.902344
vt 0.940000 0.898437
vt 0.940000 0.898437
vt 0.940000 0.898437
vt 0.940000 0.898437
vt 0.093750 0.898438
vt 0.941406 0.902344
vt 0.941406 0.902344
vt 0.093750 0.898438
vt 0.414063 0.976562
vt 0.414063 0.976562
vt 0.414063 0.976562
vt 0.414063 0.976562
vt 0.414063 0.976562
vt 0.414063 0.976562
vt 0.414063 0.976562
vt 0.414063 0.976562
vt 0.414063 0.976562
vt 0.414063 0.976562
vt 0.093750 0.898438
vt 0.093750 0.898438
vt 0.093750 0.898438
vt 0.093750 0.898438
vt 0.093750 0.898438
vt 0.093750 0.898438
vt 0.093750 0.898438
vt 0.093750 0.898438
vt 0.093750 0.898438
vt 0.093750 0.898438
vt 0.093750 0.898438
vt 0.093750 0.898438
vn 0.0000 0.0000 1.0000
vn -0.8646 0.0000 -0.5025
vn -0.2810 0.0000 -0.9597
vn 0.2298 0.0000 -0.9732
vn 0.8112 0.0000 -0.5848
vn 0.8646 0.0000 0.5025
vn 0.2810 0.0000 0.9597
vn -0.2298 0.0000 0.9732
vn -0.8112 0.0000 0.5848
vn -0.3835 0.0000 0.9235
vn 0.4386 -0.0000 0.8987
vn -0.8020 0.0643 0.5939
vn -0.2263 0.0467 0.9729
vn 0.2781 0.0428 0.9596
vn 0.8566 0.0508 0.5134
vn 0.8105 0.0467 -0.5839
vn 0.2300 0.0372 -0.9725
vn -0.2803 0.0426 -0.9590
vn -0.8625 0.0639 -0.5020
vn 0.2188 -0.2873 -0.9325
vn 0.8646 0.0055 0.5025
vn 0.7837 -0.4198 0.4578
vn 0.8127 0.0002 -0.5827
vn 0.2677 -0.2855 0.9202
vn 0.2277 -0.0140 -0.9736
vn -0.2245 -0.2350 0.9457
vn -0.2755 -0.0318 -0.9608
vn -0.8301 -0.2819 -0.4811
vn -0.8458 -0.0551 -0.5306
vn -0.2737 -0.2452 -0.9300
vn -0.8104 -0.0466 0.5840
vn 0.7389 -0.4120 -0.5332
vn -0.2298 -0.0197 0.9730
vn -0.7813 -0.2704 0.5626
vn 0.2810 -0.0038 0.9597
vn -0.0164 -0.9478 -0.3184
vn 0.0000 -1.0000 0.0000
vn 0.0000 1.0000 0.0000
vn 0.0000 0.0000 -1.0000
vn -1.0000 0.0000 0.0000
vn 1.0000 0.0000 0.0000
vn -0.3395 0.9406 0.0000
vn 0.0467 0.0000 0.9989
vn 0.0180 0.9998 0.0000
vn -0.5988 -0.8009 0.0000
vn -0.3133 0.0000 -0.9497
vn -0.3133 0.0000 0.9497
vn -0.0689 -0.9976 0.0000
vn 0.0487 -0.9988 0.0000
vn 0.3007 0.0000 -0.9537
vn 0.3007 0.0000 0.9537
vn 0.1077 0.9942 0.0000
vn 0.0467 0.0000 -0.9989
vn -0.3607 -0.9327 0.0000
vn -0.0938 0.9956 0.0000
vn 0.0327 0.9995 0.0000
vn 0.0334 0.9994 0.0000
vn 0.2438 -0.9698 0.0000
vn 0.1235 -0.9923 0.0000
vn 0.1228 -0.9924 0.0000
g Tee_Joint_Tee_Joint_Pioche
usemtl Pioche
s off
f 8/1/1 7/2/1 42/3/1 43/4/1
f 29/5/2 9/6/2 10/7/2 30/8/2
f 30/8/3 10/7/3 11/9/3 31/10/3
f 31/10/4 11/9/4 12/11/4 32/12/4
f 32/12/5 12/11/5 13/13/5 33/14/5
f 33/15/6 13/16/6 14/17/6 34/18/6
f 34/19/7 14/20/7 15/21/7 35/22/7
f 35/22/8 15/21/8 16/23/8 28/24/8
f 20/25/9 9/6/9 17/26/9 27/27/9
f 9/6/2 20/25/2 21/28/2 10/7/2
f 10/7/3 21/28/3 22/29/3 11/9/3
f 11/9/4 22/29/4 23/30/4 12/11/4
f 12/11/5 23/30/5 24/31/5 13/13/5
f 13/13/6 24/31/6 25/32/6 19/33/6
f 19/33/7 25/32/7 26/34/7 18/35/7
f 18/35/8 26/34/8 27/27/8 17/26/8
f 16/36/10 15/37/10 18/38/10 17/39/10 9/40/10
f 14/41/11 13/42/11 19/43/11 18/38/11 15/37/11
f 30/44/1 31/45/1 47/46/1 46/47/1
f 1/48/1 8/1/1 43/4/1 36/49/1
f 31/45/1 32/50/1 48/51/1 47/46/1
f 7/2/1 6/52/1 41/53/1 42/3/1
f 5/54/1 4/55/1 39/56/1 40/57/1
f 32/50/1 33/58/1 49/59/1 48/51/1
f 6/52/1 5/54/1 40/57/1 41/53/1
f 9/6/9 29/5/9 28/24/9 16/23/9
f 45/60/9 36/49/9 43/4/9 44/61/9
f 42/3/8 51/62/8 44/61/8 43/4/8
f 41/53/7 50/63/7 51/62/7 42/3/7
f 40/57/6 49/59/6 50/63/6 41/53/6
f 39/56/5 48/51/5 49/59/5 40/57/5
f 38/64/4 47/46/4 48/51/4 39/56/4
f 37/65/3 46/47/3 47/46/3 38/64/3
f 36/49/2 45/60/2 46/47/2 37/65/2
f 29/66/1 30/44/1 46/47/1 45/60/1
f 2/67/1 1/48/1 36/49/1 37/65/1
f 28/68/1 29/66/1 45/60/1 44/61/1
f 3/69/1 2/67/1 37/65/1 38/64/1
f 35/70/1 28/68/1 44/61/1 51/62/1
f 4/55/1 3/69/1 38/64/1 39/56/1
f 34/71/1 35/70/1 51/62/1 50/63/1
f 33/58/1 34/71/1 50/63/1 49/59/1
f 61/72/5 60/73/5 59/74/5 52/75/5
f 58/76/4 59/74/4 60/73/4 67/77/4
f 57/78/3 58/76/3 67/77/3 66/79/3
f 56/80/2 57/81/2 66/82/2 65/83/2
f 55/84/9 56/85/9 65/86/9 64/87/9
f 54/88/8 55/84/8 64/87/8 63/89/8
f 53/90/7 54/88/7 63/89/7 62/91/7
f 52/75/6 53/90/6 62/91/6 61/72/6
f 77/92/12 68/93/12 75/94/12 76/95/12
f 74/96/13 83/97/13 76/95/13 75/94/13
f 73/98/14 82/99/14 83/97/14 74/96/14
f 72/100/15 81/101/15 82/99/15 73/98/15
f 71/102/16 80/103/16 81/101/16 72/100/16
f 70/104/17 79/105/17 80/103/17 71/102/17
f 69/106/18 78/107/18 79/105/18 70/104/18
f 68/93/19 77/92/19 78/107/19 69/106/19
f 59/74/20 58/76/20 74/108/20 75/109/20
f 61/110/21 62/111/21 78/107/21 77/92/21
f 53/112/22 52/113/22 68/93/22 69/106/22
f 60/114/23 61/110/23 77/92/23 76/95/23
f 54/115/24 53/112/24 69/106/24 70/104/24
f 67/77/25 60/73/25 76/116/25 83/117/25
f 55/118/26 54/115/26 70/104/26 71/102/26
f 66/79/27 67/77/27 83/117/27 82/119/27
f 57/78/28 56/85/28 72/120/28 73/121/28
f 65/86/29 66/79/29 82/119/29 81/122/29
f 58/76/30 57/78/30 73/121/30 74/108/30
f 64/87/31 65/86/31 81/122/31 80/123/31
f 52/75/32 59/74/32 75/109/32 68/124/32
f 63/89/33 64/87/33 80/123/33 79/125/33
f 56/85/34 55/84/34 71/126/34 72/120/34
f 62/91/35 63/89/35 79/125/35 78/127/35
f 82/119/36 83/117/36 76/116/36 77/128/36 78/127/36 79/125/36 80/123/36 81/122/36
f 90/129/1 88/130/1 113/131/1 112/132/1
f 104/133/1 105/134/1 98/135/1 99/136/1
f 94/137/1 95/138/1 108/139/1 109/140/1
f 106/141/1 107/142/1 102/143/1 101/144/1
f 100/145/37 105/146/37 106/147/37 101/148/37
f 104/149/38 103/150/38 102/143/38 107/142/38
f 97/151/39 96/152/39 99/153/39 98/154/39
f 105/155/1 100/156/1 97/157/1 98/158/1
f 103/159/1 104/160/1 99/161/1 96/162/1
f 100/163/1 103/164/1 96/165/1 97/166/1
f 88/167/40 90/168/40 100/169/40 101/144/40
f 89/170/40 88/167/40 101/144/40 102/143/40
f 91/171/40 89/170/40 102/143/40 103/150/40
f 90/168/40 91/171/40 103/150/40 100/169/40
f 95/172/41 94/173/41 105/174/41 104/149/41
f 94/173/41 92/175/41 106/141/41 105/174/41
f 93/176/41 95/172/41 104/149/41 107/142/41
f 92/175/41 93/176/41 107/142/41 106/141/41
f 89/177/1 91/178/1 115/179/1 114/180/1
f 93/181/1 92/182/1 110/183/1 111/184/1
f 92/182/1 94/137/1 109/140/1 110/183/1
f 95/138/1 93/181/1 111/184/1 108/139/1
f 112/132/1 113/131/1 121/185/1 120/186/1
f 114/180/1 115/179/1 123/187/1 122/188/1
f 108/139/1 111/184/1 119/189/1 116/190/1
f 109/140/1 108/139/1 116/190/1 117/191/1
f 91/178/1 90/129/1 112/132/1 115/179/1
f 88/130/1 89/177/1 114/180/1 113/131/1
f 111/184/1 110/183/1 118/192/1 119/189/1
f 110/183/1 109/140/1 117/191/1 118/192/1
f 125/193/1 124/194/1 132/195/1 133/196/1
f 124/194/1 127/197/1 135/198/1 132/195/1
f 119/189/1 118/192/1 126/199/1 127/197/1
f 118/192/1 117/191/1 125/193/1 126/199/1
f 115/179/1 112/132/1 120/186/1 123/187/1
f 113/131/1 114/180/1 122/188/1 121/185/1
f 116/190/1 119/189/1 127/197/1 124/194/1
f 117/191/1 116/190/1 124/194/1 125/193/1
f 130/200/42 131/201/42 139/202/42 138/203/42
f 155/204/43 154/205/43 142/206/43 143/207/43
f 122/188/1 123/187/1 131/208/1 130/209/1
f 120/186/1 121/185/1 129/210/1 128/211/1
f 127/197/1 126/199/1 134/212/1 135/198/1
f 126/199/1 125/193/1 133/196/1 134/212/1
f 123/187/1 120/186/1 128/211/1 131/208/1
f 121/185/1 122/188/1 130/209/1 129/210/1
f 149/213/44 148/214/44 147/215/44 146/216/44
f 128/217/45 129/218/45 137/219/45 136/220/45
f 131/201/46 128/217/46 136/220/46 139/202/46
f 129/218/47 130/200/47 138/203/47 137/219/47
f 141/221/41 140/222/41 143/207/41 142/206/41
f 145/223/40 146/216/40 147/215/40 144/224/40
f 151/225/48 150/226/48 145/227/48 144/228/48
f 154/205/49 160/229/49 141/221/49 142/206/49
f 148/214/50 151/230/50 144/224/50 147/215/50
f 150/231/51 149/213/51 146/216/51 145/223/51
f 161/232/52 155/204/52 143/207/52 140/222/52
f 160/233/53 161/234/53 140/235/53 141/236/53
f 137/219/1 138/203/1 149/213/1 150/231/1
f 139/202/39 136/220/39 151/230/39 148/214/39
f 136/220/54 137/219/54 150/231/54 151/230/54
f 138/203/38 139/202/38 148/214/38 149/213/38
f 133/237/53 132/238/53 163/239/53 158/240/53
f 158/240/53 163/239/53 162/241/53 159/242/53
f 159/242/53 162/241/53 161/234/53 160/233/53
f 132/243/55 135/244/55 157/245/55 163/246/55
f 163/246/56 157/245/56 156/247/56 162/248/56
f 162/248/57 156/247/57 155/204/57 161/232/57
f 134/249/58 133/250/58 158/251/58 152/252/58
f 152/252/59 158/251/59 159/253/59 153/254/59
f 153/254/60 159/253/60 160/229/60 154/205/60
f 135/244/43 134/249/43 152/252/43 157/245/43
f 157/245/43 152/252/43 153/254/43 156/247/43
f 156/247/43 153/254/43 154/205/43 155/204/43
